<?xml version="1.0" encoding="utf-8" ?>
<svg baseProfile="full" height="1024" version="1.1" viewBox="0 0 1024 1024" width="1024" xmlns="http://www.w3.org/2000/svg" xmlns:ev="http://www.w3.org/2001/xml-events" xmlns:xlink="http://www.w3.org/1999/xlink"><defs><linearGradient id="bgGradient" x1="0" x2="1" y1="0" y2="1"><stop offset="0" stop-color="#161B22" /><stop offset="1" stop-color="#111720" /></linearGradient><linearGradient id="dotGradient" x1="0" x2="1" y1="0" y2="1"><stop offset="0" stop-color="#2DB7BD" /><stop offset="1" stop-color="#2B87FF" /></linearGradient><linearGradient id="sheen" x1="0" x2="0" y1="0" y2="1"><stop offset="0" stop-color="#ffffff" stop-opacity="0.12" /><stop offset="0.45" stop-color="#ffffff" stop-opacity="0.02" /><stop offset="1" stop-color="#ffffff" stop-opacity="0.0" /></linearGradient><radialGradient cx="50%" cy="50%" id="glow" r="50%"><stop offset="0" stop-color="#2DB7BD" stop-opacity="0.14" /><stop offset="1" stop-color="#2DB7BD" stop-opacity="0.0" /></radialGradient></defs><rect fill="url(#bgGradient)" height="856" rx="190" ry="190" width="856" x="84" y="84" /><rect fill="none" height="853" rx="189" ry="189" stroke="#ffffff" stroke-opacity="0.08" stroke-width="3" width="853" x="85.5" y="85.5" /><rect fill="url(#sheen)" height="445.12" rx="190" ry="190" width="856" x="84" y="84" /><circle cx="512" cy="512" fill="url(#glow)" r="168" /><g><g fill="none" stroke="#F6F1E8" stroke-linecap="round" stroke-linejoin="round" stroke-width="88" transform="translate(0,0) scale(1.0)"><path d="M 342 330 H 316 A 98 98 0 0 0 218 428 V 596 A 98 98 0 0 0 316 694 H 342" /><path d="M 682 330 H 708 A 98 98 0 0 1 806 428 V 596 A 98 98 0 0 1 708 694 H 682" /></g><circle cx="512.0" cy="512.0" fill="url(#dotGradient)" r="60.0" /></g></svg>